<svg xmlns="http://www.w3.org/2000/svg" width="36" height="33" fill="none"><g clip-path="url(#a)"><path fill="url(#b)" d="M28.5 10h-1.23l-2.55-7.02A3.012 3.012 0 0 0 21.9 1h-2.4c-.825 0-1.5.675-1.5 1.5S18.675 4 19.5 4h2.4l2.19 6h-7.215l-.54-1.5h.135c.825 0 1.5-.675 1.5-1.5s-.675-1.5-1.5-1.5H12c-.825 0-1.5.675-1.5 1.5s.675 1.5 1.5 1.5h1.125l2.73 7.5H14.85c-.66-3.345-3.465-5.82-6.975-5.985C3.675 9.805 0 13.3 0 17.5S3.3 25 7.5 25c3.69 0 6.675-2.535 7.35-6h6.3c.66 3.345 3.465 5.82 6.975 5.985 4.2.195 7.875-3.285 7.875-7.5C36 13.3 32.7 10 28.5 10ZM9 19h2.73c-.63 1.845-2.4 3.12-4.53 2.985C4.965 21.85 3.105 19.96 3 17.71 2.895 15.085 4.905 13 7.5 13a4.423 4.423 0 0 1 4.23 3H9c-.825 0-1.5.675-1.5 1.5S8.175 19 9 19Zm12.15-3h-2.1l-1.095-3H22.5a7.1 7.1 0 0 0-1.35 3Zm7.17 6c-2.31-.09-4.26-2.055-4.32-4.38-.03-1.44.585-2.7 1.575-3.54l.93 2.55a1.496 1.496 0 0 0 1.92.9 1.496 1.496 0 0 0 .9-1.92l-.945-2.595.015-.015A4.455 4.455 0 0 1 33 17.5c0 2.58-2.07 4.59-4.68 4.5ZM16.5 29.5h-6l9 4.5v-3h6l-9-4.5v3Z"/></g><defs><linearGradient id="b" x1="18" x2="18" y1="1" y2="34" gradientUnits="userSpaceOnUse"><stop stop-color="#FB0"/><stop offset="1" stop-color="#DCA100"/></linearGradient><clipPath id="a"><path fill="#fff" d="M0 0h36v33H0z"/></clipPath></defs></svg>