<svg width="20" height="20" viewBox="0 0 28 28" fill="none" xmlns="http://www.w3.org/2000/svg">
<g clip-path="url(#clip0_23_404)">
<path d="M16.5 17.5815C15.015 17.5815 14.08 18.1355 13.255 18.6367C12.54 19.0719 11.957 19.4281 11 19.4281C10.01 19.4281 9.46 19.0983 8.745 18.6367C7.92 18.1355 7.018 17.5815 5.5 17.5815C3.982 17.5815 3.08 18.1355 2.255 18.6367C1.782 18.9269 1.364 19.1775 0.858 19.3225C0.363 19.4544 0 19.9293 0 20.5228V20.6547C0 21.446 0.616 22.0132 1.254 21.8549C2.068 21.6571 2.684 21.2878 3.245 20.9448C3.96 20.5096 4.532 20.1535 5.5 20.1535C6.468 20.1535 7.04 20.4832 7.755 20.9448C8.58 21.446 9.482 22 11 22C12.518 22 13.42 21.446 14.245 20.9448C14.96 20.5096 15.543 20.1535 16.5 20.1535C17.49 20.1535 18.04 20.4832 18.755 20.9448C19.327 21.2878 19.943 21.6703 20.768 21.8681C20.9166 21.9029 21.0698 21.8981 21.2167 21.8541C21.3636 21.8101 21.5006 21.728 21.6181 21.6135C21.7356 21.499 21.8307 21.355 21.8967 21.1916C21.9627 21.0282 21.998 20.8494 22 20.6679V20.5492C22 19.9424 21.626 19.4676 21.131 19.3357C20.625 19.2038 20.218 18.9532 19.745 18.6499C18.92 18.1355 17.985 17.5815 16.5 17.5815V17.5815ZM16.5 11.7122C15.015 11.7122 14.08 12.2794 13.255 12.7674C12.54 13.1894 11.957 13.5588 11 13.5588C10.01 13.5588 9.46 13.229 8.745 12.7674C7.92 12.2662 7.018 11.7122 5.5 11.7122C3.982 11.7122 3.08 12.2794 2.255 12.7674C1.782 13.0444 1.364 13.3082 0.847 13.4532C0.363 13.5851 0 14.06 0 14.6535V14.7854C6.28626e-05 14.9677 0.0340147 15.1477 0.0993857 15.3123C0.164757 15.4769 0.259903 15.6219 0.377904 15.7369C0.495904 15.8518 0.633792 15.9338 0.781536 15.9768C0.929281 16.0199 1.08317 16.0229 1.232 15.9856C2.057 15.7878 2.673 15.4053 3.245 15.0755C3.96 14.6139 4.51 14.2842 5.5 14.2842C6.49 14.2842 7.04 14.6139 7.755 15.0755C8.58 15.5767 9.482 16.1307 11 16.1307C12.518 16.1307 13.42 15.5635 14.245 15.0755C14.96 14.6139 15.51 14.2842 16.5 14.2842C17.49 14.2842 18.04 14.6139 18.755 15.0755C19.327 15.4185 19.943 15.801 20.768 15.9988C20.9175 16.0338 21.0716 16.0287 21.2193 15.984C21.367 15.9392 21.5046 15.8559 21.6223 15.74C21.74 15.624 21.8349 15.4783 21.9002 15.3133C21.9655 15.1483 21.9996 14.968 22 14.7854V14.6667C22 14.06 21.626 13.5851 21.131 13.4532C20.625 13.3213 20.218 13.0707 19.745 12.7674C18.92 12.2662 17.985 11.7122 16.5 11.7122V11.7122ZM19.745 1.05516C18.92 0.553957 18.007 0 16.5 0C14.993 0 14.08 0.553957 13.255 1.05516C12.54 1.47722 11.957 1.84652 11 1.84652C10.01 1.84652 9.46 1.51679 8.745 1.05516C7.92 0.567146 7.018 0 5.5 0C3.982 0 3.08 0.553957 2.255 1.05516C1.782 1.34532 1.364 1.59592 0.858 1.74101C0.363 1.8729 0 2.34772 0 2.94125V3.03357C0 3.82494 0.594 4.40528 1.232 4.247C2.057 4.04916 2.673 3.66667 3.245 3.33693C3.96 2.90168 4.532 2.54556 5.5 2.54556C6.468 2.54556 7.04 2.8753 7.755 3.33693C8.58 3.83813 9.482 4.39209 11 4.39209C12.518 4.39209 13.42 3.82494 14.245 3.33693C14.96 2.91487 15.543 2.54556 16.5 2.54556C17.49 2.54556 18.04 2.8753 18.755 3.33693C19.327 3.67986 19.943 4.06235 20.768 4.26019C20.9175 4.29517 21.0716 4.2901 21.2193 4.24536C21.367 4.20061 21.5046 4.11729 21.6223 4.00136C21.74 3.88542 21.8349 3.73974 21.9002 3.57472C21.9655 3.40969 21.9996 3.22941 22 3.04676V2.92806C22 2.32134 21.626 1.84652 21.131 1.71463C20.625 1.58273 20.218 1.34532 19.745 1.05516V1.05516ZM16.5 5.84293C15.015 5.84293 14.08 6.41007 13.255 6.89808C12.54 7.35971 11.99 7.68945 11 7.68945C10.01 7.68945 9.46 7.35971 8.745 6.89808C7.92 6.39688 7.018 5.84293 5.5 5.84293C3.982 5.84293 3.08 6.41007 2.255 6.89808C1.782 7.20144 1.375 7.45204 0.869 7.58393C0.374 7.71583 0 8.19065 0 8.79736V8.91607C6.28626e-05 9.09837 0.0340147 9.27836 0.0993857 9.44296C0.164757 9.60755 0.259903 9.7526 0.377904 9.86756C0.495904 9.98251 0.633792 10.0645 0.781536 10.1075C0.929281 10.1505 1.08317 10.1536 1.232 10.1163C2.057 9.91847 2.673 9.53597 3.245 9.20624C3.96 8.78417 4.543 8.41487 5.5 8.41487C6.457 8.41487 7.04 8.7446 7.755 9.20624C8.58 9.70743 9.482 10.2614 11 10.2614C12.518 10.2614 13.42 9.69425 14.245 9.20624C14.96 8.78417 15.543 8.41487 16.5 8.41487C17.49 8.41487 18.04 8.7446 18.755 9.20624C19.327 9.54916 19.943 9.93165 20.768 10.1295C20.9166 10.1643 21.0698 10.1595 21.2167 10.1155C21.3636 10.0715 21.5006 9.98937 21.6181 9.87489C21.7356 9.7604 21.8307 9.61637 21.8967 9.45297C21.9627 9.28957 21.998 9.11079 22 8.92926V8.81055C22 8.20384 21.626 7.72902 21.131 7.59712C20.625 7.46523 20.218 7.21463 19.745 6.91127C18.92 6.39688 17.985 5.84293 16.5 5.84293V5.84293Z" fill="#FFBB00"/>
</g>
<defs>
<clipPath id="clip0_23_404">
<rect width="22" height="22" fill="white"/>
</clipPath>
</defs>
</svg>
