<svg xmlns="http://www.w3.org/2000/svg" width="40" height="40" fill="none"><path fill="url(#a)" d="M16.5 17.5c-3.315 0-6 2.685-6 6s2.685 6 6 6 6-2.685 6-6-2.685-6-6-6ZM29.91 22A13.492 13.492 0 0 0 18 10.09V8.5c0-.825-.675-1.5-1.5-1.5S15 7.675 15 8.5v1.59A13.492 13.492 0 0 0 3.09 22H1.5c-.825 0-1.5.675-1.5 1.5S.675 25 1.5 25h1.59A13.491 13.491 0 0 0 15 36.91v1.59c0 .825.675 1.5 1.5 1.5s1.5-.675 1.5-1.5v-1.59A13.492 13.492 0 0 0 29.91 25h1.59c.825 0 1.5-.675 1.5-1.5s-.675-1.5-1.5-1.5h-1.59ZM16.5 34C10.695 34 6 29.305 6 23.5S10.695 13 16.5 13 27 17.695 27 23.5 22.305 34 16.5 34Z"/><defs><linearGradient id="a" x1="16.5" x2="16.5" y1="7" y2="40" gradientUnits="userSpaceOnUse"><stop stop-color="#FB0"/><stop offset="1" stop-color="#DCA100"/></linearGradient></defs></svg>