<svg xmlns="http://www.w3.org/2000/svg" width="44" height="44" fill="none"><path fill="#FB0" d="M33 14.667h-1.833V11c0-5.06-4.107-9.167-9.167-9.167S12.834 5.94 12.834 11v3.667H11a3.677 3.677 0 0 0-3.667 3.666v18.334A3.677 3.677 0 0 0 11 40.333h22a3.677 3.677 0 0 0 3.667-3.666V18.333A3.677 3.677 0 0 0 33 14.667Zm-11 16.5a3.677 3.677 0 0 1-3.666-3.667A3.677 3.677 0 0 1 22 23.833a3.677 3.677 0 0 1 3.667 3.667A3.677 3.677 0 0 1 22 31.167Zm-5.5-16.5V11c0-3.043 2.457-5.5 5.5-5.5 3.044 0 5.5 2.457 5.5 5.5v3.667h-11Z"/></svg>