<svg xmlns="http://www.w3.org/2000/svg" width="50" height="50" fill="none"><g clip-path="url(#a)"><path fill="#fff" d="M50 25.152c0-13.806-11.194-25-25-25s-25 11.194-25 25c0 12.48 9.142 22.821 21.094 24.696V32.38h-6.348V25.15h6.348v-5.504c0-6.264 3.733-9.727 9.444-9.727 2.733 0 5.595.49 5.595.49v6.152H32.98c-3.106 0-4.075 1.927-4.075 3.904v4.687h6.933l-1.108 7.23h-5.825V49.85C40.858 47.973 50 37.63 50 25.152Z"/></g><defs><clipPath id="a"><path fill="#fff" d="M0 0h50v50H0z"/></clipPath></defs></svg>