<svg xmlns="http://www.w3.org/2000/svg" width="56" height="60" fill="none"><path fill="#fff" d="M25 0c-6.792 0-7.64.031-10.306.15-2.663.125-4.475.544-6.069 1.163-1.644.637-3.04 1.493-4.43 2.883-1.389 1.39-2.247 2.783-2.883 4.429C.695 10.219.272 12.031.15 14.694.025 17.36 0 18.208 0 25s.031 7.64.15 10.306c.125 2.66.544 4.475 1.163 6.069.637 1.642 1.493 3.04 2.883 4.43 1.39 1.387 2.783 2.247 4.429 2.883 1.596.616 3.408 1.039 6.069 1.162 2.666.125 3.514.15 10.306.15s7.64-.031 10.306-.15c2.66-.125 4.475-.546 6.069-1.163 1.642-.637 3.04-1.495 4.43-2.883 1.387-1.39 2.247-2.781 2.883-4.429.616-1.594 1.039-3.408 1.162-6.069.125-2.666.15-3.514.15-10.306s-.031-7.64-.15-10.306c-.125-2.66-.546-4.477-1.163-6.069-.637-1.644-1.495-3.04-2.883-4.43-1.39-1.389-2.781-2.247-4.429-2.883C39.781.695 37.967.272 35.306.15 32.64.025 31.792 0 25 0Zm0 4.5c6.673 0 7.469.033 10.104.148 2.438.115 3.76.519 4.64.865 1.17.452 2 .993 2.879 1.866.873.875 1.415 1.706 1.867 2.877.341.88.75 2.202.86 4.64.119 2.637.146 3.429.146 10.104 0 6.675-.032 7.469-.154 10.104-.127 2.438-.534 3.76-.877 4.64-.467 1.17-.998 2-1.873 2.879-.873.873-1.717 1.415-2.875 1.867-.875.341-2.219.75-4.657.86-2.654.119-3.435.146-10.123.146-6.689 0-7.47-.032-10.122-.154-2.44-.127-3.784-.534-4.659-.877-1.185-.467-2-.998-2.873-1.873-.877-.873-1.437-1.717-1.875-2.875-.343-.875-.748-2.219-.875-4.657-.093-2.625-.127-3.435-.127-10.091 0-6.659.034-7.471.127-10.127.127-2.438.532-3.78.875-4.655.438-1.187.998-2 1.875-2.877.873-.872 1.688-1.435 2.873-1.87.875-.346 2.19-.753 4.627-.878 2.656-.093 3.438-.125 10.123-.125L25 4.5Zm0 7.662c-7.094 0-12.838 5.75-12.838 12.838 0 7.094 5.75 12.837 12.838 12.837 7.094 0 12.837-5.75 12.837-12.837 0-7.094-5.75-12.838-12.837-12.838Zm0 21.171A8.33 8.33 0 0 1 16.667 25 8.33 8.33 0 0 1 25 16.667 8.33 8.33 0 0 1 33.333 25 8.33 8.33 0 0 1 25 33.333Zm16.346-21.677c0 1.656-1.346 3-3 3-1.656 0-3-1.346-3-3a3.002 3.002 0 0 1 3-2.998 3.002 3.002 0 0 1 3 2.998Z"/></svg>