<svg xmlns="http://www.w3.org/2000/svg" width="28" height="28" fill="none"><g clip-path="url(#a)"><path fill="#FB0" d="M28 14.085c0-7.731-6.268-14-14-14-7.731 0-14 6.269-14 14 0 6.989 5.12 12.78 11.813 13.83v-9.782H8.258v-4.049h3.555v-3.082c0-3.508 2.09-5.447 5.288-5.447 1.53 0 3.134.274 3.134.274v3.445h-1.767c-1.74 0-2.282 1.08-2.282 2.187v2.624h3.883l-.62 4.049h-3.263v9.782C22.881 26.866 28 21.073 28 14.086Z"/></g><defs><clipPath id="a"><path fill="#fff" d="M0 0h28v28H0z"/></clipPath></defs></svg>