<svg xmlns="http://www.w3.org/2000/svg" width="60" height="60" fill="none"><path fill="gray" fill-opacity=".3" d="M55.385 43.846a2.308 2.308 0 1 0 4.615 0 2.308 2.308 0 0 0-4.615 0ZM55.385 57.692a2.308 2.308 0 1 0 4.615 0 2.308 2.308 0 0 0-4.615 0ZM41.538 16.154a2.308 2.308 0 1 0 4.616 0 2.308 2.308 0 0 0-4.616 0ZM41.538 30a2.308 2.308 0 1 0 4.616 0 2.308 2.308 0 0 0-4.616 0ZM41.538 43.846a2.308 2.308 0 1 0 4.616 0 2.308 2.308 0 0 0-4.616 0ZM41.538 57.692a2.308 2.308 0 1 0 4.616 0 2.308 2.308 0 0 0-4.616 0ZM27.692 16.154a2.308 2.308 0 1 0 4.616 0 2.308 2.308 0 0 0-4.616 0ZM27.692 30a2.308 2.308 0 1 0 4.616 0 2.308 2.308 0 0 0-4.616 0ZM27.692 43.846a2.308 2.308 0 1 0 4.616 0 2.308 2.308 0 0 0-4.616 0ZM27.692 57.692a2.308 2.308 0 1 0 4.616 0 2.308 2.308 0 0 0-4.616 0ZM13.846 2.308a2.308 2.308 0 1 0 4.615 0 2.308 2.308 0 0 0-4.615 0ZM13.846 16.154a2.308 2.308 0 1 0 4.615 0 2.308 2.308 0 0 0-4.615 0ZM13.846 30a2.308 2.308 0 1 0 4.615 0 2.308 2.308 0 0 0-4.615 0ZM13.846 43.846a2.308 2.308 0 1 0 4.615 0 2.308 2.308 0 0 0-4.615 0ZM13.846 57.692a2.308 2.308 0 1 0 4.615 0 2.308 2.308 0 0 0-4.615 0ZM0 2.308a2.308 2.308 0 1 0 4.615 0 2.308 2.308 0 0 0-4.615 0ZM0 16.154a2.308 2.308 0 1 0 4.615 0 2.308 2.308 0 0 0-4.615 0ZM0 30a2.308 2.308 0 1 0 4.615 0A2.308 2.308 0 0 0 0 30ZM0 43.846a2.308 2.308 0 1 0 4.615 0 2.308 2.308 0 0 0-4.615 0ZM0 57.692a2.308 2.308 0 1 0 4.615 0 2.308 2.308 0 0 0-4.615 0Z"/></svg>