<svg xmlns="http://www.w3.org/2000/svg" width="189" height="68" fill="none"><path fill="#9C9C9C" d="M25.103 38.22v5.866c0 2.933-1.288 3.99-3.335 3.99-2.047 0-3.334-1.057-3.334-3.99V21.913c0-2.933 1.288-4.048 3.335-4.048 2.047 0 3.334 1.115 3.334 4.048v4.4h6.084v-3.99c0-6.57-3.277-10.323-9.594-10.323C15.275 12 12 15.754 12 22.324v21.351C12 50.245 15.275 54 21.593 54c6.317 0 9.594-3.755 9.594-10.325v-5.454h-6.084Zm24.275-25.75 6.552 41.06h-6.493l-1.112-7.45H40.43l-1.112 7.45H33.41l6.551-41.06h9.417Zm-5.088 7.273-3.042 20.766h6.2L44.407 19.74h-.116l-.001.002ZM78.918 53.53h-6.551c-.35-1.057-.585-1.703-.585-5.046v-6.452c0-3.812-1.287-5.22-4.212-5.22h-2.223V53.53h-6.434V12.469h9.71c6.668 0 9.534 3.11 9.534 9.445v3.226c0 4.223-1.345 6.921-4.211 8.27 3.218 1.466 4.27 4.517 4.27 8.8v6.334c0 1.995.059 3.46.701 4.987h.001Zm-10.47-35.196h-3.1v12.612h2.514c2.4 0 3.86-1.055 3.86-4.34v-4.048c0-2.933-.993-4.223-3.274-4.223v-.001Zm30.08-5.866 6.552 41.062h-6.493l-1.11-7.45h-7.898l-1.11 7.45h-5.91l6.552-41.062h9.418Zm-5.088 7.274-3.042 20.766h6.2L93.558 19.74h-.117v.002Zm17.592-7.274h-6.493l6.317 41.062h9.594l6.317-41.062h-5.908l-4.855 33.493h-.118l-4.854-33.493Zm31.163 0 6.552 41.062h-6.493l-1.111-7.45h-7.897l-1.112 7.45h-5.908l6.552-41.062h9.417Zm-5.089 7.274-3.042 20.766h6.201l-3.042-20.768h-.117v.002ZM166.39 53.53H173V12.469h-5.733v24.578h-.117l-6.493-24.578h-8.072v41.062h5.792V23.789h.116l7.897 29.742Z"/></svg>