<svg xmlns="http://www.w3.org/2000/svg" width="197" height="68" fill="none"><path fill="#9C9C9C" fill-rule="evenodd" d="M36.18 33.307h2.836c2.932 0 4.516 3.407 2.606 5.615l-2.777 3.208a7.637 7.637 0 0 0 2.839 4.818 7.782 7.782 0 0 0 5.388 1.63 7.762 7.762 0 0 0 5.074-2.427 7.611 7.611 0 0 0 2.062-5.192 2.53 2.53 0 0 1 .754-1.805 2.575 2.575 0 0 1 1.82-.746c.683 0 1.338.27 1.82.748.483.478.755 1.126.756 1.803 0 2.676-.85 5.284-2.43 7.455a12.863 12.863 0 0 1-4.527 3.864 12.981 12.981 0 0 1-11.622.109 12.866 12.866 0 0 1-4.6-3.779 12.867 12.867 0 0 1-4.599 3.779 12.985 12.985 0 0 1-11.622-.11 12.861 12.861 0 0 1-4.526-3.863A12.666 12.666 0 0 1 13 40.959a2.528 2.528 0 0 1 .754-1.805 2.572 2.572 0 0 1 1.822-.746c.682 0 1.337.27 1.82.748.482.478.754 1.126.755 1.803a7.61 7.61 0 0 0 2.053 5.205 7.743 7.743 0 0 0 3.658 2.192 7.795 7.795 0 0 0 4.274-.07 7.736 7.736 0 0 0 3.583-2.311 7.633 7.633 0 0 0 1.796-3.846l-2.779-3.208c-1.908-2.207-.326-5.613 2.61-5.613h2.834Z" clip-rule="evenodd"/><path fill="#9C9C9C" d="M48.385 26.329a5.136 5.136 0 0 0 3.644-1.511 5.167 5.167 0 0 0 1.51-3.654 5.179 5.179 0 0 0-1.51-3.653 5.147 5.147 0 0 0-8.404 1.676 5.182 5.182 0 0 0 0 3.955 5.17 5.17 0 0 0 2.789 2.795c.625.259 1.295.392 1.971.392Zm-24.05 0a5.137 5.137 0 0 0 3.643-1.512 5.166 5.166 0 0 0 1.51-3.653 5.18 5.18 0 0 0-1.51-3.653 5.148 5.148 0 0 0-8.404 1.676 5.179 5.179 0 0 0 0 3.955 5.168 5.168 0 0 0 2.79 2.795c.625.26 1.295.392 1.971.392Zm70.963-9.067c.794 0 1.446.227 1.956.682.51.455.764 1.052.764 1.792v25.503c0 .768-.24 1.379-.722 1.834-.48.454-1.12.682-1.912.682-.794 0-1.431-.228-1.914-.681-.481-.456-.723-1.067-.723-1.834v-1.067c-.623 1.165-1.53 2.075-2.72 2.729-1.162.654-2.494.98-3.996.98-1.787 0-3.387-.454-4.803-1.364-1.39-.91-2.48-2.19-3.274-3.839-.766-1.676-1.148-3.595-1.148-5.756s.382-4.052 1.148-5.673c.794-1.62 1.884-2.871 3.274-3.753 1.388-.881 2.99-1.322 4.803-1.322 1.502 0 2.834.313 3.996.939a6.498 6.498 0 0 1 2.678 2.644V19.65c0-.71.226-1.28.68-1.706.482-.455 1.12-.682 1.913-.682Zm-7.865 26.484c1.701 0 3.005-.582 3.911-1.749.935-1.165 1.403-2.83 1.403-4.99s-.468-3.81-1.403-4.946c-.906-1.166-2.195-1.75-3.868-1.75-1.7 0-3.019.57-3.954 1.707-.934 1.137-1.402 2.772-1.402 4.905 0 2.16.468 3.838 1.402 5.032.935 1.195 2.24 1.791 3.911 1.791Zm25.532 4.137c-2.125 0-3.996-.44-5.611-1.322-1.588-.881-2.82-2.146-3.699-3.796-.878-1.65-1.318-3.568-1.318-5.757 0-2.19.439-4.095 1.318-5.715.879-1.65 2.111-2.914 3.698-3.796 1.616-.881 3.487-1.322 5.612-1.322s3.982.44 5.568 1.322a8.84 8.84 0 0 1 3.699 3.796c.879 1.62 1.319 3.526 1.319 5.715 0 2.19-.44 4.108-1.319 5.757a8.84 8.84 0 0 1-3.699 3.796c-1.586.88-3.443 1.322-5.567 1.322h-.001Zm-.042-4.137c1.729 0 3.046-.569 3.953-1.706s1.361-2.815 1.361-5.032c0-2.19-.454-3.853-1.361-4.99-.907-1.166-2.211-1.749-3.911-1.749-1.7 0-3.019.583-3.953 1.75-.907 1.136-1.361 2.8-1.361 4.989 0 2.217.453 3.895 1.361 5.032.907 1.137 2.21 1.706 3.911 1.706Zm32.613-17.485c.794 0 1.432.227 1.913.68.483.457.723 1.068.723 1.835v16.846c0 3.27-.907 5.743-2.72 7.422-1.815 1.677-4.492 2.515-8.035 2.515-3.089 0-5.668-.582-7.737-1.748-1.048-.626-1.573-1.38-1.573-2.26 0-.626.142-1.123.425-1.493a1.49 1.49 0 0 1 1.19-.555c.256 0 .567.057.936.172.368.141.751.298 1.147.468.888.379 1.796.706 2.721.981.822.227 1.757.342 2.806.342 3.713 0 5.569-1.82 5.569-5.46v-2.73c-.624 1.167-1.53 2.076-2.72 2.73-1.191.626-2.551.939-4.081.939-1.815 0-3.43-.427-4.847-1.279-1.389-.882-2.479-2.104-3.273-3.668s-1.191-3.369-1.191-5.417c0-2.047.383-3.852 1.148-5.416.794-1.593 1.899-2.815 3.316-3.668 1.417-.881 3.032-1.322 4.847-1.322 1.53 0 2.89.327 4.081.98a6.381 6.381 0 0 1 2.72 2.688v-1.109c0-.739.241-1.336.723-1.792.481-.454 1.12-.681 1.912-.681Zm-8.034 16.547c1.701 0 3.018-.555 3.953-1.663.964-1.11 1.446-2.63 1.446-4.564 0-1.962-.482-3.497-1.446-4.606-.935-1.108-2.252-1.663-3.953-1.663-1.672 0-2.99.555-3.953 1.663-.964 1.11-1.446 2.644-1.446 4.606 0 1.934.482 3.454 1.446 4.564.963 1.109 2.281 1.663 3.953 1.663Zm23.698 5.075c-3.089 0-5.582-.611-7.481-1.834-.907-.54-1.36-1.308-1.36-2.303 0-.569.155-1.024.467-1.364.312-.37.694-.556 1.148-.556.481 0 1.148.229 1.998.684.907.426 1.729.753 2.465.98.766.228 1.729.341 2.891.341 1.191 0 2.112-.199 2.764-.597.68-.398 1.019-.952 1.019-1.663 0-.482-.141-.867-.425-1.151-.255-.285-.736-.54-1.445-.768-.681-.256-1.728-.54-3.146-.853-2.522-.512-4.336-1.237-5.441-2.175-1.077-.938-1.615-2.232-1.615-3.88 0-1.252.368-2.375 1.105-3.37.736-1.024 1.742-1.805 3.018-2.346 1.304-.568 2.777-.853 4.421-.853 1.19 0 2.338.157 3.444.47 1.054.262 2.059.693 2.976 1.278.906.569 1.36 1.322 1.36 2.261 0 .568-.156 1.052-.468 1.45-.311.37-.695.555-1.148.555-.311 0-.624-.057-.935-.17a26.45 26.45 0 0 1-1.105-.598c-.822-.427-1.531-.739-2.126-.938-.595-.227-1.332-.342-2.21-.342-1.049 0-1.885.214-2.509.64-.595.426-.893 1.01-.893 1.749 0 .71.313 1.251.936 1.62.624.37 1.828.74 3.614 1.11 1.899.398 3.386.852 4.463 1.364 1.077.512 1.842 1.152 2.295 1.919.483.768.723 1.75.723 2.943 0 1.933-.807 3.483-2.422 4.649-1.588 1.165-3.714 1.748-6.378 1.748Z"/></svg>