<svg xmlns="http://www.w3.org/2000/svg" width="197" height="60" fill="none"><path fill="#9C9C9C" d="M19.632 43.501c-.795 0-1.44-.247-1.933-.741-.466-.495-.699-1.14-.699-1.937V16.719c0-.796.22-1.414.658-1.854.466-.44 1.097-.659 1.892-.659h14.434c1.672 0 2.508.714 2.508 2.143 0 1.4-.836 2.1-2.508 2.1H22.223v7.912H33.16c1.673 0 2.509.714 2.509 2.142 0 1.401-.836 2.102-2.509 2.102H22.223v10.218c0 .797-.233 1.442-.7 1.937-.466.494-1.096.741-1.891.741Zm24.404 0c-.74 0-1.357-.206-1.85-.618-.466-.44-.7-1.058-.7-1.854V16.431c0-.797.234-1.4.7-1.813.493-.412 1.11-.618 1.85-.618s1.357.206 1.85.618c.494.412.741 1.016.741 1.813v24.598c0 .796-.247 1.415-.74 1.854-.494.412-1.11.618-1.85.618Zm23.806-5.768c.466 0 .837.178 1.11.535.302.358.453.838.453 1.443 0 .851-.507 1.565-1.521 2.142-.933.522-1.988.948-3.167 1.277-1.179.302-2.303.453-3.372.453-3.235 0-5.798-.933-7.69-2.801-1.892-1.868-2.837-4.423-2.837-7.664 0-2.06.41-3.887 1.233-5.48.823-1.593 1.974-2.83 3.455-3.708 1.508-.88 3.207-1.319 5.099-1.319 1.81 0 3.386.399 4.729 1.195 1.343.797 2.385 1.923 3.125 3.379.74 1.456 1.11 3.173 1.11 5.15 0 1.181-.52 1.772-1.562 1.772H55.876c.164 1.895.699 3.296 1.604 4.203.904.879 2.22 1.318 3.947 1.318.878 0 1.645-.11 2.303-.33.686-.22 1.453-.522 2.303-.906.823-.44 1.426-.66 1.81-.66Zm-7.115-11.496c-1.398 0-2.522.44-3.372 1.319-.822.879-1.316 2.142-1.48 3.79h9.293c-.054-1.675-.466-2.939-1.233-3.79-.768-.88-1.837-1.319-3.208-1.319ZM90.81 39.463c.493.495.74 1.058.74 1.69 0 .604-.233 1.153-.7 1.648-.465.467-1.014.7-1.644.7-.686 0-1.275-.288-1.769-.865l-5.798-6.428-5.798 6.428c-.521.55-1.11.824-1.768.824-.603 0-1.138-.234-1.604-.7-.466-.468-.7-1.003-.7-1.607 0-.632.248-1.195.74-1.69l6.005-6.551-5.675-6.18c-.494-.495-.74-1.058-.74-1.69 0-.632.233-1.167.699-1.607.466-.467 1-.7 1.604-.7.657 0 1.247.275 1.768.824l5.47 6.016 5.469-6.016c.52-.55 1.11-.824 1.768-.824.63 0 1.165.233 1.604.7.466.44.699.976.699 1.607 0 .632-.247 1.195-.74 1.69l-5.675 6.18 6.045 6.551Zm22.75-11.207c1.673.467 2.961 1.319 3.866 2.555.932 1.236 1.398 2.746 1.398 4.532 0 2.472-.891 4.409-2.673 5.81-1.755 1.4-4.181 2.1-7.279 2.1h-10.61c-.794 0-1.425-.219-1.891-.658-.439-.44-.658-1.058-.658-1.855V16.72c0-.797.22-1.415.658-1.855.466-.44 1.097-.659 1.892-.659h10.197c3.016 0 5.373.673 7.073 2.019 1.727 1.318 2.591 3.173 2.591 5.562 0 1.539-.411 2.87-1.234 3.997-.795 1.126-1.905 1.95-3.331 2.472h.001Zm-12.666-1.813h6.703c3.647 0 5.47-1.36 5.47-4.079 0-1.373-.453-2.39-1.357-3.049-.905-.66-2.276-.989-4.113-.989h-6.703v8.117Zm7.403 12.69c1.919 0 3.317-.343 4.194-1.03.877-.686 1.316-1.757 1.316-3.213 0-1.456-.452-2.541-1.357-3.255-.877-.714-2.262-1.072-4.153-1.072h-7.403v8.57h7.403Zm17.584 4.368c-.74 0-1.357-.206-1.85-.618-.466-.44-.699-1.058-.699-1.854V16.431c0-.797.233-1.4.699-1.813.493-.412 1.11-.618 1.85-.618.741 0 1.358.206 1.851.618.493.412.74 1.016.74 1.813v24.598c0 .796-.247 1.415-.74 1.854-.493.412-1.11.618-1.851.618Zm17.062.083c-2.056 0-3.865-.426-5.428-1.278-1.535-.851-2.728-2.074-3.577-3.667-.85-1.593-1.275-3.447-1.275-5.562s.425-3.956 1.275-5.521c.849-1.594 2.042-2.816 3.577-3.667 1.563-.852 3.372-1.278 5.428-1.278 2.057 0 3.852.426 5.388 1.278a8.548 8.548 0 0 1 3.577 3.667c.85 1.565 1.275 3.406 1.275 5.52 0 2.116-.425 3.97-1.275 5.563a8.548 8.548 0 0 1-3.577 3.667c-1.536.852-3.331 1.278-5.388 1.278Zm-.041-3.997c1.673 0 2.947-.55 3.825-1.648.877-1.099 1.316-2.72 1.316-4.862 0-2.115-.439-3.722-1.316-4.82-.878-1.127-2.139-1.69-3.784-1.69-1.644 0-2.919.563-3.824 1.69-.877 1.098-1.316 2.705-1.316 4.82 0 2.142.439 3.763 1.316 4.862.877 1.099 2.138 1.648 3.783 1.648Zm31.549-16.893c.768 0 1.385.22 1.851.659.466.44.699 1.03.699 1.772V41.4c0 3.159-.877 5.548-2.632 7.169-1.754 1.62-4.345 2.431-7.772 2.431-2.988 0-5.483-.563-7.484-1.69-1.015-.604-1.522-1.332-1.522-2.183 0-.604.137-1.085.411-1.442a1.443 1.443 0 0 1 1.152-.536c.246 0 .548.055.904.165.357.137.727.288 1.111.453.987.412 1.864.728 2.632.948.795.22 1.699.33 2.714.33 3.591 0 5.387-1.758 5.387-5.274v-2.637c-.603 1.126-1.481 2.005-2.632 2.637-1.152.604-2.467.906-3.948.906-1.754 0-3.317-.412-4.688-1.236-1.343-.852-2.399-2.033-3.166-3.543-.768-1.511-1.152-3.256-1.152-5.233 0-1.978.37-3.722 1.111-5.233.767-1.538 1.836-2.72 3.207-3.543 1.371-.852 2.934-1.278 4.688-1.278 1.481 0 2.796.316 3.948.948a6.164 6.164 0 0 1 2.632 2.596v-1.072c0-.714.233-1.29.699-1.73.466-.44 1.083-.66 1.85-.66Zm-7.772 15.986c1.645 0 2.92-.535 3.825-1.606.932-1.072 1.398-2.541 1.398-4.41 0-1.895-.466-3.378-1.398-4.45-.905-1.07-2.18-1.606-3.825-1.606-1.617 0-2.892.536-3.824 1.607-.932 1.071-1.398 2.555-1.398 4.45 0 1.868.466 3.337 1.398 4.409.932 1.07 2.207 1.606 3.824 1.606Z"/></svg>