<svg xmlns="http://www.w3.org/2000/svg" width="220" height="92" fill="none"><path fill="#9C9C9C" d="m55.676 28.51-5.298 32.825h-7.61L44.7 49.482h-8.198L34.61 61.335H27l5.34-32.826h7.568l-2.27 13.86h8.198l2.273-13.86h7.568-.001Zm15.61 32.825.253-7.157h-7.022l-2.06 7.157h-8.031L65.232 28.51h13.874l.17 32.826h-7.99Zm-1.724-24.847-3.32 11.58h5.507l.462-11.579h-2.649v-.001Zm42.368-7.979-5.298 32.826h-7.611l-5.296-17.961-2.86 17.962h-7.612l5.34-32.827h7.82l5.215 16.779 2.731-16.779H111.93Zm17.755 0c3.672 0 6.293 1.004 7.862 3.01 1.15 1.52 1.724 3.42 1.724 5.699 0 .82-.07 1.686-.209 2.598l-1.64 10.167c-.561 3.434-1.935 6.186-4.121 8.253-2.187 2.067-5.018 3.1-8.495 3.1h-12.235l5.341-32.827h11.773Zm-2.649 7.114h-2.733l-2.985 18.599h3.995c1.316 0 2.34-.38 3.068-1.14.758-.79 1.276-2.066 1.554-3.828l1.222-7.478c.105-.603.162-1.213.168-1.824 0-2.889-1.429-4.33-4.289-4.33Zm34.769 25.712h-21.107l5.342-32.826h21.107l-1.177 7.114h-13.539l-.967 6.155h11.184l-1.177 7.11h-11.185l-.84 5.335h13.539l-1.179 7.112h-.001Zm24.017 0h-19.173l5.341-32.826h7.568l-4.162 25.714H187l-1.178 7.112Zm-74.251 5.842h73.143L182.429 74h-73.143l2.285-6.823ZM35 16h80l-2.286 6.823h-80L35 16Z"/></svg>