<svg xmlns="http://www.w3.org/2000/svg" width="246" height="80" fill="none"><path fill="#9C9C9C" fill-rule="evenodd" d="M62.023 55.991a.673.673 0 0 1-.53-.266 1.885 1.885 0 0 1-.349-.797c-.083-.368-.148-.74-.193-1.115-.054-.483-.081-.968-.082-1.453a87.143 87.143 0 0 1 .01-3.202c.015-.655.02-1.166.02-1.534V35.426c0-.6.005-1.057.012-1.371.007-.314.03-.668.07-1.064.023-.294.075-.585.154-.87.078-.219.18-.428.306-.624.116-.205.285-.374.49-.49.239-.12.484-.225.735-.318.323-.12.658-.206 1-.256.444-.064.89-.12 1.338-.164v-1.126l-.349-.349H52.327l-.327.349v.961c2.069.123 3.226.71 3.47 1.76.143.887.211 1.784.205 2.681v18.683a18.75 18.75 0 0 1-.123 2.906c-.057.15-.14.288-.245.409-.158.188-.324.37-.5.542a6.6 6.6 0 0 0-.397.42v.716c10.52 0 17.032.068 19.535.205l.88-2.967-.552-.39c-4.065.512-8.154.82-12.249.921v.001Zm19.556-8.553a.563.563 0 0 1-.122.02c-.204 0-.306-.074-.306-.224 0-.679.052-1.356.153-2.027.115-.73.306-1.448.572-2.138a8.12 8.12 0 0 1 1.043-1.964 4.9 4.9 0 0 1 3.97-1.955 3.204 3.204 0 0 1 2.837 1.413c.644.953.98 2.082.96 3.232a1.037 1.037 0 0 1-.684.962c-1.118.45-2.26.84-3.42 1.167-1.63.48-3.257.978-4.877 1.495a.567.567 0 0 0-.126.019Zm12.126 6.384c-2.45 1.487-4.567 2.23-6.348 2.23a5.804 5.804 0 0 1-3.39-1.002 6.067 6.067 0 0 1-2.132-2.507 7.74 7.74 0 0 1-.684-3.243c8.9-2.769 13.392-4.154 13.473-4.154a1.508 1.508 0 0 0 1.204-1.555 5.837 5.837 0 0 0-.684-2.885 4.99 4.99 0 0 0-1.847-1.914 8.948 8.948 0 0 0-2.522-1.002 12.87 12.87 0 0 0-2.93-.318 12.356 12.356 0 0 0-5.143 1.034 9.86 9.86 0 0 0-3.684 2.763 12.565 12.565 0 0 0-2.133 3.888 13.905 13.905 0 0 0-.736 4.512c0 3.151.852 5.512 2.552 7.08 1.538 1.433 3.709 2.148 6.512 2.148a10.51 10.51 0 0 0 4.624-1.125 35.693 35.693 0 0 0 4.95-2.989l-.447-.796-.635-.165Zm27.494-21.577a5.975 5.975 0 0 0-3.001-3.253 12.667 12.667 0 0 0-5.409-.982 15.89 15.89 0 0 0-4.011.49c-1.219.311-2.383.808-3.45 1.474a7.078 7.078 0 0 0-2.48 2.672 7.965 7.965 0 0 0-.919 3.877 5.95 5.95 0 0 0 .683 2.772 7.757 7.757 0 0 0 1.715 2.242 20.9 20.9 0 0 0 2.408 1.831c.85.566 1.729 1.085 2.635 1.555a46.13 46.13 0 0 1 2.511 1.392 11.26 11.26 0 0 1 1.908 1.36c1.51 1.406 2.266 2.743 2.266 4.012a4.944 4.944 0 0 1-1.572 3.59 5.162 5.162 0 0 1-3.776 1.566 5.392 5.392 0 0 1-4.318-1.964 6.743 6.743 0 0 1-1.663-4.483l-.795-.287-4.062 4.564a9.508 9.508 0 0 0 3.655 3.141 10.717 10.717 0 0 0 4.796 1.096 15.176 15.176 0 0 0 4.471-.697 16.492 16.492 0 0 0 4.124-1.893 9.967 9.967 0 0 0 3.031-3.028 7.11 7.11 0 0 0 1.174-3.899 6.05 6.05 0 0 0-.387-2.179 6.985 6.985 0 0 0-1.001-1.801 8.937 8.937 0 0 0-1.705-1.606 21.77 21.77 0 0 0-2.174-1.444 74.189 74.189 0 0 0-2.735-1.484 35.359 35.359 0 0 1-1.899-.992 22.97 22.97 0 0 1-1.717-1.11 8.616 8.616 0 0 1-1.55-1.364 6.278 6.278 0 0 1-.98-1.596 4.845 4.845 0 0 1-.408-1.975 4.144 4.144 0 0 1 1.192-3.008 4.204 4.204 0 0 1 3.154-1.228 4.89 4.89 0 0 1 3.848 1.616 7.154 7.154 0 0 1 1.745 3.91l.715.224 3.981-3.11Zm19.852 7.848a4.133 4.133 0 0 0-1.531-1.534 7.367 7.367 0 0 0-2.021-.788 10.345 10.345 0 0 0-2.316-.245 12.098 12.098 0 0 0-4.359.747 9.466 9.466 0 0 0-3.225 1.974 10.724 10.724 0 0 0-2.123 2.895 13.733 13.733 0 0 0-1.215 3.428 17.88 17.88 0 0 0-.367 3.663 10.755 10.755 0 0 0 .438 3.088c.287.97.732 1.886 1.317 2.711a6.074 6.074 0 0 0 2.399 1.965 8.038 8.038 0 0 0 3.501.726c3.824 0 7.417-1.685 10.778-5.054l-.408-.594-.51-.122c-2.49 1.923-4.791 2.885-6.9 2.885a4.88 4.88 0 0 1-2.276-.522 4.589 4.589 0 0 1-1.625-1.35 8.208 8.208 0 0 1-1.031-1.903 10.237 10.237 0 0 1-.582-2.097 13.11 13.11 0 0 1-.163-2.046c.004-.872.079-1.74.224-2.6.161-.955.4-1.896.715-2.813a5.875 5.875 0 0 1 1.449-2.374 3.133 3.133 0 0 1 2.246-.931 3 3 0 0 1 2.776 1.515 7.187 7.187 0 0 1 .898 3.724l.715.287 3.858-2.291a5.198 5.198 0 0 0-.662-2.344Zm7.482 6.088c.104-.804.285-1.595.541-2.363a8.846 8.846 0 0 1 .99-2.118 4.721 4.721 0 0 1 1.583-1.484 4.355 4.355 0 0 1 2.255-.583 4.506 4.506 0 0 1 2.439.645 4.255 4.255 0 0 1 1.582 1.76c.369.748.637 1.543.795 2.363.168.883.251 1.78.246 2.68 0 .82-.007 1.501-.021 2.046a24.83 24.83 0 0 1-.143 1.966c-.06.642-.172 1.278-.336 1.902a9.795 9.795 0 0 1-.623 1.597 4.01 4.01 0 0 1-.99 1.33c-.433.353-.924.63-1.45.818a5.616 5.616 0 0 1-1.99.328 3.623 3.623 0 0 1-2.093-.635 4.702 4.702 0 0 1-1.459-1.565 9.713 9.713 0 0 1-.878-2.138 14.282 14.282 0 0 1-.47-2.242 17.148 17.148 0 0 1-.122-1.974c0-.78.048-1.56.144-2.333Zm-2.531 10.58c1.483 1.35 3.837 2.026 7.063 2.026 1.193.007 2.382-.13 3.542-.41a10.45 10.45 0 0 0 3.08-1.32 9.122 9.122 0 0 0 2.46-2.281 10.65 10.65 0 0 0 1.613-3.397 16.21 16.21 0 0 0 .592-4.543 8.516 8.516 0 0 0-2.797-6.59c-1.702-1.526-4.172-2.29-7.41-2.29-3.239 0-5.906 1.002-8.002 3.008a10.058 10.058 0 0 0-3.144 7.591c0 3.657 1 6.392 3.001 8.206h.002Zm31.946-16.207c1.089 0 1.865.218 2.328.655.431.527.703 1.166.785 1.843.171.798.277 1.61.316 2.425.028.716.042 1.64.042 2.772-.002 1.47-.012 2.94-.031 4.41-.007.443-.004.965.01 1.566.003.448.031.895.082 1.34.041.294.095.614.163.961.047.291.144.571.286.829.122.205.272.392.447.554.613.555 1.419.849 2.245.817 1.021 0 2.191-.518 3.511-1.555a38.296 38.296 0 0 0 3.144-2.927l-.469-.697h-.49a4.976 4.976 0 0 1-2.796 1.085 1.604 1.604 0 0 1-1.185-.43 1.587 1.587 0 0 1-.358-.397 2.935 2.935 0 0 1-.213-.84 11.906 11.906 0 0 1-.103-1.77c0-.45.024-1.177.072-2.179.038-.712.062-1.425.072-2.139V45.65c.013-1.323.01-2.24-.01-2.753-.041-.699-.12-1.396-.236-2.086a3.8 3.8 0 0 0-.632-1.822 4.257 4.257 0 0 0-1.266-.94 4.44 4.44 0 0 0-2.082-.441c-2.395 0-5.172.983-8.329 2.947l-.49-.184a3.88 3.88 0 0 0-.704-2.097c-.402-.527-1.092-.789-2.072-.789a5.575 5.575 0 0 0-1.725.297 8.315 8.315 0 0 0-1.838.88c-.62.39-1.157.75-1.613 1.085-.456.333-.983.74-1.582 1.217l.755 1.003c.139-.09.278-.179.419-.266.238-.15.445-.273.622-.369l.633-.337c.219-.12.448-.22.685-.299.18-.062.369-.097.56-.102.236-.006.469.054.674.174.207.137.364.338.447.573.103.248.191.5.265.756.084.347.132.7.143 1.055.028.465.044.84.05 1.125.006.286.009.716.01 1.29v.348c0 1.337-.102 5.429-.306 12.277l.51.287 4.594-1.33c-.137-.587-.239-2.435-.307-5.545a396.728 396.728 0 0 1-.099-9.127c2.368-1.282 4.055-1.923 5.062-1.923l.004.001Zm19.801 6.977a.54.54 0 0 1-.122.022c-.204 0-.306-.076-.307-.225.001-.68.052-1.356.154-2.027.115-.73.306-1.448.571-2.138.256-.7.606-1.36 1.042-1.965a4.895 4.895 0 0 1 3.97-1.954 3.207 3.207 0 0 1 2.837 1.412c.644.954.979 2.083.96 3.233a1.038 1.038 0 0 1-.684.962c-1.118.45-2.259.84-3.419 1.167-1.631.48-3.258.978-4.879 1.494a.603.603 0 0 0-.122.02h-.001v-.001Zm12.126 6.385c-2.451 1.488-4.567 2.23-6.349 2.23a5.812 5.812 0 0 1-3.389-1.002 6.067 6.067 0 0 1-2.132-2.506 7.737 7.737 0 0 1-.685-3.245c8.901-2.768 13.392-4.153 13.474-4.153a1.511 1.511 0 0 0 1.204-1.555 5.834 5.834 0 0 0-.684-2.886 4.99 4.99 0 0 0-1.847-1.913 8.968 8.968 0 0 0-2.521-1.003 12.877 12.877 0 0 0-2.932-.317 12.355 12.355 0 0 0-5.141 1.034 9.853 9.853 0 0 0-3.684 2.762 12.52 12.52 0 0 0-2.133 3.888 13.874 13.874 0 0 0-.735 4.513c0 3.151.85 5.51 2.551 7.08 1.538 1.433 3.708 2.148 6.512 2.148a10.509 10.509 0 0 0 4.624-1.125 35.8 35.8 0 0 0 4.95-2.988l-.447-.797-.636-.165Z" clip-rule="evenodd"/></svg>