<svg xmlns="http://www.w3.org/2000/svg" width="203" height="72" fill="none"><path fill="#9C9C9C" d="M78.16 56V19H68.53L48.398 47.55 45 43.4c6.076-.9 9.474-6.1 9.474-11.65 0-5.3-2.986-9.75-7.003-11.45-2.008-.85-4.994-1.3-8.959-1.3H26v37h9.32V44.05h.103L44.228 56h9.834l3.347-5.35h11.019V56h9.732ZM35.32 37.6V27.3h3.707c3.656 0 6.127 1.8 6.127 5 0 3.4-2.317 5.3-6.179 5.3H35.32Zm33.108 5.55h-6.385l6.282-10.25h.103v10.25ZM117.213 56V19h-9.32l.412 23.4L93.475 19h-8.392v37h9.32l-.258-22.6L108.768 56h8.445Zm28.103 0v-8.3h-11.843v-6.35h11.482v-8.3h-11.482V27.3h11.843V19h-21.163v37h21.163ZM184 56l-13.439-18.55L183.176 19h-10.195L162.22 35.65h-.103V19h-9.732v37h9.732V40h.103l10.401 16H184Z"/></svg>