<svg xmlns="http://www.w3.org/2000/svg" width="207" height="80" fill="none"><path fill="#9C9C9C" d="M68.375 58.17c-2.659 0-4.697-.46-6.115-1.381-1.394-.946-2.09-2.327-2.09-4.143 0-.92.305-1.675.912-2.263.633-.613 1.444-.92 2.431-.92.582.026 1.025.178 1.33.46.304.256.456.499.456.729 0 .025-.127.115-.38.268a2.23 2.23 0 0 0-.684.69c-.203.308-.304.73-.304 1.266 0 1.202.355 2.136 1.064 2.8.734.64 1.861.959 3.38.959 1.04 0 1.95-.204 2.736-.613.785-.41 1.38-.946 1.785-1.611.43-.69.646-1.407.646-2.149 0-.92-.266-1.712-.798-2.377a6.27 6.27 0 0 0-1.899-1.65c-.76-.46-1.799-.985-3.115-1.573-1.52-.69-2.747-1.316-3.684-1.88a7.96 7.96 0 0 1-2.395-2.223c-.657-.947-.987-2.11-.987-3.491 0-2.224.747-3.887 2.241-4.986 1.52-1.1 3.508-1.65 5.965-1.65 1.924 0 3.596.41 5.014 1.228 1.444.818 2.165 2.02 2.165 3.605 0 .92-.317 1.688-.95 2.302-.607.588-1.405.882-2.392.882-.583-.026-1.026-.167-1.33-.422-.304-.281-.456-.537-.456-.767 0-.026.165-.115.494-.269.354-.153.658-.383.911-.69.279-.307.418-.73.418-1.266 0-.946-.367-1.688-1.101-2.225-.71-.537-1.621-.805-2.736-.805-1.544 0-2.722.371-3.532 1.112-.785.716-1.178 1.611-1.178 2.686 0 .894.24 1.649.722 2.262.48.588 1.253 1.176 2.317 1.764.922.49 1.86.952 2.81 1.382 1.622.74 2.9 1.419 3.838 2.033a7.746 7.746 0 0 1 2.393 2.416c.658.997.988 2.238.988 3.72 0 1.28-.405 2.442-1.216 3.491-.784 1.023-1.862 1.828-3.229 2.416-1.342.588-2.824.883-4.445.883Zm19.232-.307c-1.722 0-3.09-.525-4.103-1.573s-1.52-2.43-1.52-4.143v-7.096c0-.664-.025-1.15-.075-1.457-.025-.306-.177-.575-.457-.806-.278-.23-.746-.344-1.404-.344-.305 0-.532-.039-.684-.116-.153-.102-.228-.32-.228-.652 0-.154.05-.294.152-.42a.606.606 0 0 1 .456-.27c1.595-.23 2.963-.563 4.102-.998.355-.127.646-.204.874-.23h.114c.405 0 .608.243.608.73v11.621c0 1.176.367 2.084 1.102 2.724a3.853 3.853 0 0 0 2.545.92c1.19 0 2.202-.294 3.038-.882.836-.588 1.394-1.177 1.672-1.765v-8.054c0-.665-.025-1.15-.076-1.458-.025-.306-.177-.575-.456-.806-.279-.23-.747-.344-1.406-.344-.304 0-.531-.039-.683-.116-.152-.102-.228-.32-.228-.652 0-.154.05-.294.152-.42a.606.606 0 0 1 .456-.27c1.595-.23 2.963-.563 4.103-.998a4.09 4.09 0 0 1 .873-.23h.114c.406 0 .608.243.608.73v13.271c0 1.51 1 2.264 3.001 2.264.43 0 .646.243.646.729 0 .357-.216.575-.646.651l-6.116.422c-.177 0-.279-.064-.305-.191a2.953 2.953 0 0 1-.037-.575v-2.15h-.076a46.28 46.28 0 0 1-1.785 1.611c-.456.358-1.051.665-1.787.921-.708.281-1.556.421-2.544.421v.001Zm15.374-.345a.568.568 0 0 1-.457-.23.952.952 0 0 1-.152-.537c.026-.332.102-.525.228-.575.128-.077.355-.116.684-.116.659 0 1.127-.115 1.406-.345.279-.23.431-.5.456-.805.051-.308.076-.793.076-1.458v-8.784c0-.664-.025-1.15-.076-1.458-.025-.306-.177-.575-.456-.805-.279-.23-.747-.346-1.406-.346-.304 0-.531-.038-.683-.114-.152-.103-.228-.32-.228-.653 0-.153.05-.294.152-.42a.606.606 0 0 1 .456-.27c1.646-.256 3.001-.588 4.064-.997a8.99 8.99 0 0 1 .874-.23h.114c.405 0 .608.243.608.729v2.377h.114c.886-.895 1.785-1.598 2.697-2.109.912-.537 1.735-.805 2.469-.805.836 0 1.494.32 1.976.958.506.614.759 1.33.759 2.148 0 .717-.215 1.356-.645 1.918-.431.563-1.026.844-1.786.844a1.935 1.935 0 0 1-.949-.23c-.254-.154-.393-.281-.419-.383.026-.051.153-.205.38-.461.228-.281.342-.6.342-.958 0-.461-.126-.832-.38-1.113-.228-.282-.544-.422-.949-.422-.431 0-.975.217-1.633.652-.66.41-1.305.934-1.938 1.573v9.358c0 .666.025 1.15.076 1.459.051.306.215.575.494.805.278.23.747.345 1.405.345h.228c.203 0 .354.039.456.115.101.077.164.269.19.575 0 .205-.05.384-.152.537a.509.509 0 0 1-.456.231 77.1 77.1 0 0 0-3.988-.116c-1.14 0-2.457.039-3.951.115v.001Zm58.999.345c-1.722 0-3.254-.41-4.596-1.228a9.11 9.11 0 0 1-3.154-3.299 9.18 9.18 0 0 1-1.101-4.372c0-1.918.443-3.58 1.33-4.986.886-1.433 2.013-2.52 3.38-3.26 1.368-.768 2.748-1.151 4.141-1.151 1.723 0 3.255.421 4.597 1.265a8.438 8.438 0 0 1 3.115 3.299 8.719 8.719 0 0 1 1.139 4.334c0 1.918-.455 3.593-1.367 5.025-.886 1.407-2.013 2.493-3.381 3.26-1.367.742-2.735 1.113-4.103 1.113Zm0-1.42c1.723 0 2.976-.741 3.761-2.224.81-1.483 1.216-3.401 1.216-5.754 0-2.199-.418-3.988-1.254-5.37-.81-1.406-2.052-2.109-3.723-2.109-1.747 0-3.013.73-3.799 2.187-.785 1.457-1.177 3.361-1.177 5.715 0 2.198.405 4.014 1.216 5.446.81 1.407 2.064 2.11 3.76 2.11Zm18.423 1.611c-1.241 0-2.304-.46-3.191-1.38-.886-.921-1.33-2.237-1.33-3.95V41.445l-2.203.077a.46.46 0 0 1-.379-.192.886.886 0 0 1-.153-.499c0-.23.039-.421.114-.575.102-.179.241-.281.418-.307.887-.178 1.571-.46 2.052-.843.506-.41.874-.844 1.101-1.304.229-.486.507-1.215.836-2.188.127-.332.406-.498.836-.498.177 0 .355.051.532.154.177.076.265.204.265.383l-.265 4.373 4.444-.269h.077c.329 0 .493.243.493.73 0 .28-.051.55-.152.804-.076.231-.177.346-.304.346l-4.254-.115v11.66c0 .844.164 1.548.493 2.11.355.563.924.844 1.71.844.785 0 1.482-.141 2.089-.422.33-.128.532-.192.608-.192.178 0 .317.077.418.23.101.128.202.308.304.537.027.06.04.126.038.192 0 .102-.076.217-.228.345-.735.486-1.431.806-2.089.96-.634.177-1.394.267-2.28.267Zm-61.399-.767c.101.154.253.23.456.23a74.915 74.915 0 0 1 3.951-.115c1.697 0 3.279.039 4.748.115a.476.476 0 0 0 .418-.23.955.955 0 0 0 .152-.537c-.025-.306-.088-.498-.19-.575-.076-.076-.228-.115-.456-.115h-.228c-.835 0-1.431-.064-1.785-.192a1.145 1.145 0 0 1-.722-.69c-.126-.358-.19-.933-.19-1.726v-11.93h4.027a.57.57 0 0 0 .456-.23.82.82 0 0 0 .19-.538c-.026-.306-.102-.498-.229-.575-.101-.102-.265-.154-.493-.154h-3.951v-2.3c0-1.227.051-2.302.152-3.223a6.257 6.257 0 0 1 .873-2.608c.482-.792 1.229-1.188 2.242-1.188.116 0 .229.006.338.02-.014-.43.014-.86.083-1.284a5.66 5.66 0 0 0-.155-.003c-2.229.052-3.964.908-5.204 2.57-1.216 1.637-1.824 3.773-1.824 6.406v1.611h-2.279c-.329 0-.558.038-.684.115-.127.051-.203.256-.228.614 0 .204.051.383.152.536a.61.61 0 0 0 .494.231h2.545v11.93c0 .69-.025 1.189-.076 1.496-.025.28-.177.537-.456.767-.278.23-.747.345-1.405.345-.329 0-.558.039-.684.115-.101.05-.164.243-.19.575 0 .205.051.384.152.537Z"/><path fill="#9C9C9C" fill-rule="evenodd" d="M139.142 30.879a4.209 4.209 0 0 1-1.234 2.972 4.2 4.2 0 0 1-2.974 1.229 4.203 4.203 0 0 1-2.974-7.174 4.212 4.212 0 0 1 5.949 0 4.222 4.222 0 0 1 1.233 2.973Zm-4.208 2.1a2.103 2.103 0 0 0 1.944-2.905 2.11 2.11 0 0 0-1.139-1.137 2.103 2.103 0 0 0-2.291.455 2.103 2.103 0 0 0-.618 1.486 2.107 2.107 0 0 0 2.104 2.101Zm-1.844 3.928V57.17c0 .226.064.402.19.528.126.152.302.227.53.227.227 0 .416-.1.568-.302.151-.176.29-.441.417-.794a7.59 7.59 0 0 1 .341-.833h.189c1.641 1.236 3.585 1.853 5.832 1.853 1.515 0 2.941-.403 4.28-1.21a8.85 8.85 0 0 0 3.181-3.29c.808-1.411 1.212-2.961 1.212-4.65 0-1.715-.353-3.24-1.061-4.577-.681-1.36-1.628-2.42-2.84-3.176-1.212-.756-2.563-1.134-4.052-1.134-.909 0-1.831.189-2.765.567a7.095 7.095 0 0 0-2.462 1.626h-.113v-5.028a6.37 6.37 0 0 1-3.447-.069Zm11.438 17.576c-.934 1.387-2.172 2.08-3.711 2.08-.808 0-1.528-.176-2.159-.53-.606-.352-1.099-.768-1.478-1.248-.353-.503-.567-.958-.643-1.36v-9.983c1.085-1.16 2.423-1.74 4.015-1.74 1.792 0 3.142.706 4.052 2.118.908 1.386 1.363 3.062 1.363 5.029 0 2.344-.479 4.223-1.439 5.634ZM35.14 23.293a1.58 1.58 0 0 1 1.835 0c6.835 4.875 9.933 10.719 10.129 19.103.09 4.004-.296 7.67-1.47 10.836-1.206 3.169-3.348 6.096-6.502 8.569a1.58 1.58 0 0 1-1.405.271c-.967-.277-1.131-1.42-1.67-2.133-.537.712-.7 1.855-1.668 2.132a1.58 1.58 0 0 1-1.405-.271c-3.154-2.472-5.297-5.399-6.502-8.568-1.173-3.166-1.56-6.832-1.47-10.836.195-8.384 3.293-14.229 10.128-19.102Zm3.534 34.896c1.974-1.813 3.164-3.79 4.004-6.063 1.058-2.78 1.363-5.85 1.271-9.656-.152-6.538-1.685-10.793-6.326-14.743v11.555c1.815.466 2.63 2.244 2.63 4.2 0 1.959-.815 3.736-2.63 4.203v9.453s.843.777 1.051 1.051Zm-5.26 0c-1.974-1.813-3.136-3.79-3.976-6.063-1.057-2.78-1.362-5.85-1.27-9.656.152-6.525 1.676-10.797 6.298-14.743v11.555c-1.815.466-2.63 2.244-2.63 4.2 0 1.959.815 3.736 2.63 4.203v9.453s-.85.787-1.052 1.051Zm2.63-16.807a2.102 2.102 0 0 0-2.104 2.1 2.102 2.102 0 0 0 3.591 1.487 2.102 2.102 0 0 0-1.487-3.586Z" clip-rule="evenodd"/></svg>