<svg xmlns="http://www.w3.org/2000/svg" width="201" height="50" fill="none"><path fill="#9C9C9C" d="M36.78 34.955a5.62 5.62 0 0 1-2.776-.648 5.695 5.695 0 0 1-2.115-1.932 9.428 9.428 0 0 1-6.136 2.58c-4.097 0-6.318-2.922-5.568-7.11.57-3.15 3.121-6.306 3.834-8.84-1.38-.85-3.429-1.442-4.389.295l-.63-.387c.503-1.904 1.718-3.171 3.473-3.171 1.756 0 3.054 1.054 4.727.083h1.335c-.712 3.794-2.513 6.829-3.473 12.141-.585 3.256.503 4.736 2.341 4.736a5.534 5.534 0 0 0 3.51-1.906 15.542 15.542 0 0 1-1.087-5.835c0-4.614 2.093-9.477 5.604-9.477 1.8 0 3.136 1.266 3.136 4.272 0 3.004-1.8 7.656-4.096 10.577a3.048 3.048 0 0 0 1.018 1.782 2.983 2.983 0 0 0 1.908.716c3.346 0 5.686-5.078 5.686-9.775 0-4.696-2.01-4.484-1.837-6.07a1.54 1.54 0 0 1 .157-.568 1.502 1.502 0 0 1 1.44-.828c1.044 0 2.416 1.335 2.416 6.754 0 6.904-3.631 12.611-8.478 12.611Zm-.757-17.089c-1.043 0-2.049 3.893-2.176 7.915-.049.86-.034 1.722.045 2.58a20.41 20.41 0 0 0 2.806-8.674c-.008-1.366-.255-1.821-.676-1.821h.001ZM52.13 34.781a2.994 2.994 0 0 1-2.404-.846 3.068 3.068 0 0 1-.897-2.41c0-1.86 2.386-11.125 2.386-12.65 0-.72-.165-1.145-.795-1.145a3.615 3.615 0 0 0-1.884.933V17.35a6.109 6.109 0 0 1 3.976-1.646 3.007 3.007 0 0 1 2.41.875 3.096 3.096 0 0 1 .892 2.425c0 1.86-2.386 11.087-2.386 12.604 0 .722.165 1.147.796 1.147a3.897 3.897 0 0 0 1.883-.889v1.267a6.026 6.026 0 0 1-3.977 1.648ZM55.056 8a2.234 2.234 0 0 1 1.743.75c.22.244.383.534.48.85.097.317.124.652.08.98a2.925 2.925 0 0 1-.92 1.82 2.863 2.863 0 0 1-1.878.76 2.228 2.228 0 0 1-1.743-.75 2.259 2.259 0 0 1-.48-.85 2.303 2.303 0 0 1-.08-.98c.08-.701.408-1.349.92-1.82a2.864 2.864 0 0 1 1.878-.76Zm9.288 22.803c-.21 1.146-.082 1.943.713 1.943a3.734 3.734 0 0 0 1.883-.888l.074 1.274a6.108 6.108 0 0 1-3.976 1.648c-2.596 0-3.6-1.905-3.217-4.272l2.55-14.684c.848-4.902.555-5.547-2.041-5.547l.165-1.184 7.825-1.047-3.976 22.757Zm22.005-.038c-.21 1.146-.129 1.989.712 1.989a3.951 3.951 0 0 0 1.883-.934v1.312a5.968 5.968 0 0 1-3.976 1.648 2.978 2.978 0 0 1-2.079-.646 3.042 3.042 0 0 1-1.102-1.896 6.852 6.852 0 0 1-2.364 2 6.772 6.772 0 0 1-2.993.747c-4.974 0-7.067-4.44-6.107-9.775.96-5.334 5.439-9.69 10.503-9.69a6.98 6.98 0 0 1 3.444.827l.127-.675c.991-5.22.534-5.395-2.062-5.395l.127-1.184 7.862-1.047-3.976 22.72v-.001Zm-5.395-13.332c-2.889 0-4.808 3.467-5.567 7.74-.795 4.484-.292 7.588 2.424 7.588 1.837 0 3.93-2.277 4.56-5.752l1.547-8.802a5.258 5.258 0 0 0-2.964-.774Zm18.613 17.558c-5.814 0-7.405-4.234-6.692-8.293l1.898-10.874c.878-4.909.586-5.585-2.01-5.585l.164-1.184 7.848-1.01-1.59 9.22a6.972 6.972 0 0 1 4.389-1.737c5.064 0 7.442 4.356 6.527 9.69-.915 5.335-5.574 9.774-10.534 9.774Zm2.716-17.452a3.979 3.979 0 0 0-2.337.822 4.052 4.052 0 0 0-1.414 2.053l-1.17 6.83c-.713 4.06.713 5.714 2.513 5.714 2.633 0 4.269-2.96 5.146-7.824.781-4.355.069-7.572-2.745-7.572l.007-.023Zm15.748 10.138c0 3.256 1.545 4.993 4.501 4.993 1.501 0 3.683-1.054 5.064-2.451l.585 1.35a10.816 10.816 0 0 1-3.505 2.504c-1.324.59-2.749.904-4.192.926-4.389 0-7.36-3.3-7.36-7.785 0-6.64 5.439-11.678 10.669-11.678 3.181 0 4.973 1.775 4.973 3.847-.037 3.217-3.053 6.83-10.735 8.294Zm5.394-10.199c-2.386 0-4.681 3.513-5.312 8.545 4.809-1.184 6.857-4.485 6.902-6.602-.007-1.184-.555-1.943-1.598-1.943h.008Zm22.409 17.302a2.98 2.98 0 0 1-2.079-.646 3.041 3.041 0 0 1-1.101-1.896 6.617 6.617 0 0 1-2.306 2.001 6.526 6.526 0 0 1-2.946.745c-4.891 0-6.985-4.439-6.002-9.774.982-5.334 5.386-9.683 10.466-9.683a7.827 7.827 0 0 1 3.135.639h4.772l-2.558 14.599c-.211 1.146-.128 1.989.713 1.989a3.956 3.956 0 0 0 1.883-.934v1.312a5.972 5.972 0 0 1-3.977 1.648Zm-3.848-17.347c-2.807 0-4.772 3.467-5.522 7.74-.796 4.484-.248 7.588 2.251 7.588 1.92 0 3.976-2.367 4.561-5.752l1.546-8.802a4.807 4.807 0 0 0-2.829-.774h-.007Zm22.424 3.088c-1.133 0-1.426-.888-1.755-1.821a2.088 2.088 0 0 0-.763-1.178 2.042 2.042 0 0 0-1.33-.416 2.472 2.472 0 0 0-1.712.569 2.527 2.527 0 0 0-.884 1.586c-.128 1.147.712 2.117 2.302 3.514l2.131 1.775a5.523 5.523 0 0 1 1.778 2.362c.369.936.478 1.957.315 2.95-.54 3.172-3.135 5.122-6.609 5.122-4.187 0-6.857-2.497-6.565-4.189a1.9 1.9 0 0 1 .627-1.145 1.864 1.864 0 0 1 1.212-.463c1.087 0 1.5.842 1.837 1.942a3.034 3.034 0 0 0 1.186 1.542c.554.368 1.21.54 1.868.492a2.6 2.6 0 0 0 1.794-.606c.501-.418.83-1.014.922-1.67.165-1.518-.75-2.451-2.468-4.023l-2.093-1.858a5.298 5.298 0 0 1-1.666-2.2 5.36 5.36 0 0 1-.345-2.747c.375-2.034 2.251-4.554 6.564-4.554 3.346 0 5.439 1.905 5.252 3.43-.021.42-.197.817-.493 1.11a1.64 1.64 0 0 1-1.105.476Zm15.312-2.656h-4.059l-1.965 11.246c-.42 2.33-.083 3.385 1.17 3.385.668 0 1.718-.38 3.219-1.943l.082 1.646a7.314 7.314 0 0 1-2.477 1.924 7.237 7.237 0 0 1-3.044.701c-2.844 0-4.269-2.032-3.594-5.797l1.965-11.162h-3.173l.248-1.737h3.203l.84-5.032h4.682l-.878 5.031H180l-.278 1.738Z"/></svg>