<svg xmlns="http://www.w3.org/2000/svg" width="27" height="28" fill="none"><path fill="#FB0" d="M26.435 7.217a3.553 3.553 0 0 0-.872-1.577 3.367 3.367 0 0 0-1.515-.915c-2.105-.59-10.548-.59-10.548-.59s-8.443 0-10.55.59a3.37 3.37 0 0 0-1.513.915c-.419.438-.72.981-.872 1.577C0 9.415 0 14 0 14s0 4.585.565 6.783c.152.596.453 1.14.872 1.577.419.437.941.753 1.515.915 2.105.59 10.548.59 10.548.59s8.443 0 10.55-.59a3.367 3.367 0 0 0 1.514-.915c.42-.437.72-.981.872-1.577C27 18.585 27 14 27 14s0-4.585-.565-6.783ZM10.738 18.163V9.837L17.795 14l-7.057 4.163Z"/></svg>