<svg xmlns="http://www.w3.org/2000/svg" width="25" height="25" fill="none"><g clip-path="url(#a)"><path fill="#FB0" d="M18.75 19.979c-1.688 0-2.75.63-3.688 1.2-.812.494-1.474.898-2.562.898-1.125 0-1.75-.374-2.563-.899C9 20.608 7.976 19.98 6.25 19.98c-1.725 0-2.75.63-3.688 1.2-.537.329-1.012.614-1.587.778-.563.15-.975.69-.975 1.364v.15c0 .9.7 1.544 1.425 1.364.925-.225 1.625-.644 2.263-1.034.812-.495 1.462-.9 2.562-.9 1.1 0 1.75.375 2.563.9C9.75 24.371 10.774 25 12.5 25c1.725 0 2.75-.63 3.688-1.199.812-.495 1.475-.9 2.562-.9 1.125 0 1.75.375 2.563.9.65.39 1.35.824 2.287 1.05.169.039.343.033.51-.017.167-.05.323-.143.456-.273a1.4 1.4 0 0 0 .317-.48c.075-.185.115-.389.117-.595v-.135c0-.69-.425-1.229-.988-1.379-.575-.15-1.037-.434-1.575-.779-.937-.585-2-1.214-3.687-1.214Zm0-6.67c-1.688 0-2.75.645-3.688 1.2-.812.479-1.474.899-2.562.899-1.125 0-1.75-.375-2.563-.9C9 13.938 7.976 13.31 6.25 13.31c-1.725 0-2.75.645-3.688 1.2-.537.314-1.012.614-1.6.779-.55.15-.962.69-.962 1.364v.15c0 .207.039.411.113.598.074.187.182.352.316.483.135.13.291.224.46.273a.975.975 0 0 0 .511.01c.938-.225 1.638-.66 2.288-1.035.812-.524 1.437-.899 2.562-.899 1.125 0 1.75.375 2.563.9.937.569 1.962 1.198 3.687 1.198 1.725 0 2.75-.644 3.688-1.199.812-.524 1.437-.899 2.562-.899 1.125 0 1.75.375 2.563.9.65.389 1.35.824 2.287 1.048.17.04.345.034.513-.016.168-.051.324-.146.458-.278.134-.131.241-.297.316-.485.074-.187.113-.392.113-.6v-.134c0-.69-.425-1.23-.988-1.38-.575-.15-1.037-.434-1.575-.779-.937-.57-2-1.199-3.687-1.199ZM22.438 1.2C21.5.629 20.462 0 18.75 0c-1.712 0-2.75.63-3.688 1.199-.812.48-1.474.9-2.562.9-1.125 0-1.75-.375-2.563-.9C9 .644 7.976 0 6.25 0 4.525 0 3.5.63 2.562 1.199c-.537.33-1.012.615-1.587.78C.412 2.128 0 2.667 0 3.341v.105c0 .9.675 1.559 1.4 1.38.938-.226 1.638-.66 2.288-1.035.812-.495 1.462-.9 2.562-.9 1.1 0 1.75.375 2.563.9.937.57 1.962 1.199 3.687 1.199 1.725 0 2.75-.644 3.688-1.199.812-.48 1.475-.9 2.562-.9 1.125 0 1.75.375 2.563.9.65.39 1.35.824 2.287 1.05.17.039.345.033.513-.018.168-.05.324-.145.458-.277.134-.132.241-.297.316-.485.074-.187.113-.392.113-.6v-.135c0-.69-.425-1.229-.988-1.379-.575-.15-1.037-.42-1.575-.749Zm-3.688 5.44c-1.688 0-2.75.645-3.688 1.2-.812.524-1.437.899-2.562.899-1.125 0-1.75-.375-2.563-.9C9 7.27 7.976 6.64 6.25 6.64c-1.725 0-2.75.644-3.688 1.199-.537.344-1 .63-1.574.78C.425 8.767 0 9.307 0 9.996v.135c0 .207.039.412.113.599.074.187.182.351.316.482.135.13.291.224.46.273a.975.975 0 0 0 .511.01c.938-.225 1.638-.66 2.288-1.034.812-.48 1.474-.9 2.562-.9 1.088 0 1.75.375 2.563.9.937.57 1.962 1.199 3.687 1.199 1.725 0 2.75-.645 3.688-1.2.812-.479 1.475-.899 2.562-.899 1.125 0 1.75.375 2.563.9.65.39 1.35.824 2.287 1.049.169.04.343.034.51-.016.167-.05.323-.143.456-.273a1.4 1.4 0 0 0 .317-.48c.075-.186.115-.389.117-.595v-.135c0-.69-.425-1.229-.988-1.379-.575-.15-1.037-.435-1.575-.78-.937-.584-2-1.213-3.687-1.213Z"/></g><defs><clipPath id="a"><path fill="#fff" d="M0 0h25v25H0z"/></clipPath></defs></svg>