<svg xmlns="http://www.w3.org/2000/svg" width="25" height="25" fill="none"><path fill="#FB0" d="M21.827 9.524a1.25 1.25 0 0 0-.088 1.25c.31.724.529 1.484.65 2.263a10 10 0 0 1-.862 5.913 1.25 1.25 0 0 1-1.113.662H4.601a1.25 1.25 0 0 1-1.112-.675A10 10 0 0 1 13.752 4.6a9.613 9.613 0 0 1 2.637.7 1.25 1.25 0 0 0 1.25-.087 1.25 1.25 0 0 0-.212-2.2A12.5 12.5 0 0 0 1.689 20.775a2.5 2.5 0 0 0 2.15 1.25h17.313a2.5 2.5 0 0 0 2.175-1.25 12.499 12.499 0 0 0 .687-11.113 1.25 1.25 0 0 0-2.187-.138Z"/><path fill="#FB0" d="M11.031 13.115a2.084 2.084 0 0 0 2.948 2.947l5.896-8.843-8.844 5.896Z"/></svg>