<svg xmlns="http://www.w3.org/2000/svg" width="41" height="45" fill="none"><path fill="#DCA100" d="M32.857 5c2.266 0 4.19.813 5.771 2.439C40.21 9.119 41 11.233 41 13.78c0 2.982-1.16 6.37-3.479 10.163-2.319 3.794-5.956 7.48-10.91 11.057l-1.897-7.073c2.372-3.09 3.979-5.773 4.822-8.049l-4.585-7.073c0-1.247.342-2.493 1.028-3.74.632-1.192 1.555-2.168 2.767-2.927C29.958 5.38 31.328 5 32.856 5ZM12.143 5c2.266 0 4.19.813 5.771 2.439 1.582 1.68 2.372 3.794 2.372 6.341 0 2.982-1.16 6.37-3.478 10.163-2.32 3.794-5.956 7.48-10.91 11.057L4 27.927c2.372-3.09 3.98-5.773 4.823-8.049l-4.586-7.073c0-1.247.343-2.493 1.028-3.74.632-1.192 1.555-2.168 2.767-2.927C9.244 5.38 10.615 5 12.143 5Z"/></svg>