<svg xmlns="http://www.w3.org/2000/svg" width="41" height="33" fill="none"><path fill="#DCA100" d="M10.143 33c-2.266 0-4.19-.813-5.771-2.439C2.79 28.881 2 26.767 2 24.22c0-2.982 1.16-6.37 3.479-10.163C7.798 10.263 11.434 6.577 16.389 3l1.897 7.073c-2.372 3.09-3.979 5.772-4.822 8.049l4.585 7.073c0 1.247-.342 2.493-1.028 3.74-.632 1.192-1.555 2.168-2.767 2.927-1.212.759-2.582 1.138-4.11 1.138Zm20.714 0c-2.267 0-4.19-.813-5.771-2.439-1.582-1.68-2.372-3.794-2.372-6.341 0-2.982 1.16-6.37 3.478-10.163 2.32-3.794 5.956-7.48 10.91-11.057L39 10.073c-2.372 3.09-3.98 5.772-4.823 8.049l4.586 7.073c0 1.247-.343 2.493-1.028 3.74-.632 1.192-1.555 2.168-2.767 2.927C33.756 32.62 32.385 33 30.857 33Z"/></svg>