<svg width="32" height="32" viewBox="0 0 32 32" fill="none" xmlns="http://www.w3.org/2000/svg">
<g clip-path="url(#clip0_306_183)">
<circle cx="16" cy="16" r="16" fill="white"/>
<path d="M21.8333 14H21.15L19.7333 10.1C19.6161 9.77842 19.403 9.50054 19.1228 9.30385C18.8427 9.10715 18.509 9.0011 18.1667 9H16.8333C16.375 9 16 9.375 16 9.83333C16 10.2917 16.375 10.6667 16.8333 10.6667H18.1667L19.3833 14H15.375L15.075 13.1667H15.15C15.6083 13.1667 15.9833 12.7917 15.9833 12.3333C15.9833 11.875 15.6083 11.5 15.15 11.5H12.6667C12.2083 11.5 11.8333 11.875 11.8333 12.3333C11.8333 12.7917 12.2083 13.1667 12.6667 13.1667H13.2917L14.8083 17.3333H14.25C13.8833 15.475 12.325 14.1 10.375 14.0083C8.04167 13.8917 6 15.8333 6 18.1667C6 20.5 7.83333 22.3333 10.1667 22.3333C12.2167 22.3333 13.875 20.925 14.25 19H17.75C18.1167 20.8583 19.675 22.2333 21.625 22.325C23.9583 22.4333 26 20.5 26 18.1583C26 15.8333 24.1667 14 21.8333 14ZM11 19H12.5167C12.1667 20.025 11.1833 20.7333 10 20.6583C8.75833 20.5833 7.725 19.5333 7.66667 18.2833C7.60833 16.825 8.725 15.6667 10.1667 15.6667C11.275 15.6667 12.1833 16.3583 12.5167 17.3333H11C10.5417 17.3333 10.1667 17.7083 10.1667 18.1667C10.1667 18.625 10.5417 19 11 19ZM17.75 17.3333H16.5833L15.975 15.6667H18.5C18.1333 16.15 17.8667 16.7083 17.75 17.3333ZM21.7333 20.6667C20.45 20.6167 19.3667 19.525 19.3333 18.2333C19.3167 17.4333 19.6583 16.7333 20.2083 16.2667L20.725 17.6833C20.8833 18.1167 21.3583 18.3417 21.7917 18.1833C22.225 18.025 22.45 17.55 22.2917 17.1167L21.7667 15.675L21.775 15.6667C22.1091 15.6553 22.4421 15.7117 22.7538 15.8326C23.0655 15.9534 23.3494 16.1362 23.5885 16.3698C23.8276 16.6035 24.0169 16.8832 24.1449 17.192C24.2729 17.5008 24.337 17.8324 24.3333 18.1667C24.3333 19.6 23.1833 20.7167 21.7333 20.6667Z" fill="url(#paint0_linear_306_183)"/>
</g>
<defs>
<linearGradient id="paint0_linear_306_183" x1="16" y1="9" x2="16" y2="27.3333" gradientUnits="userSpaceOnUse">
<stop stop-color="#FFBB00"/>
<stop offset="1" stop-color="#DCA100"/>
</linearGradient>
<clipPath id="clip0_306_183">
<rect width="32" height="32" fill="white"/>
</clipPath>
</defs>
</svg>
